<mxfile host="app.diagrams.net" modified="2023-04-18T10:11:30.446Z" agent="Mozilla/5.0 (Windows NT 10.0; Win64; x64) AppleWebKit/537.36 (KHTML, like Gecko) Chrome/110.0.0.0 YaBrowser/23.3.1.896 Yowser/2.5 Safari/537.36" etag="OchAwUXi6eoxPzUQoAEi" version="21.1.8" type="device">
  <diagram name="Страница 1" id="Gpm1VOwC-fxdW-vNvqHI">
    <mxGraphModel dx="1750" dy="2162" grid="1" gridSize="10" guides="1" tooltips="1" connect="1" arrows="1" fold="1" page="1" pageScale="1" pageWidth="1654" pageHeight="1200" math="0" shadow="0">
      <root>
        <mxCell id="0" />
        <mxCell id="1" parent="0" />
        <mxCell id="OFGrTXWQW8-pZroq9YEu-17" value="" style="edgeStyle=orthogonalEdgeStyle;rounded=0;orthogonalLoop=1;jettySize=auto;html=1;" edge="1" parent="1" source="OFGrTXWQW8-pZroq9YEu-15">
          <mxGeometry relative="1" as="geometry">
            <mxPoint x="175" y="-1110" as="targetPoint" />
          </mxGeometry>
        </mxCell>
        <mxCell id="OFGrTXWQW8-pZroq9YEu-15" value="GetSize()" style="text;html=1;align=center;verticalAlign=middle;resizable=0;points=[];autosize=1;strokeColor=#82b366;fillColor=#d5e8d4;" vertex="1" parent="1">
          <mxGeometry x="140" y="-1160" width="70" height="30" as="geometry" />
        </mxCell>
        <mxCell id="OFGrTXWQW8-pZroq9YEu-19" value="" style="edgeStyle=orthogonalEdgeStyle;rounded=0;orthogonalLoop=1;jettySize=auto;html=1;" edge="1" parent="1" source="OFGrTXWQW8-pZroq9YEu-16" target="OFGrTXWQW8-pZroq9YEu-18">
          <mxGeometry relative="1" as="geometry" />
        </mxCell>
        <mxCell id="OFGrTXWQW8-pZroq9YEu-16" value="Start" style="ellipse;whiteSpace=wrap;html=1;" vertex="1" parent="1">
          <mxGeometry x="135" y="-1110" width="80" height="40" as="geometry" />
        </mxCell>
        <mxCell id="OFGrTXWQW8-pZroq9YEu-21" value="" style="edgeStyle=orthogonalEdgeStyle;rounded=0;orthogonalLoop=1;jettySize=auto;html=1;" edge="1" parent="1" source="OFGrTXWQW8-pZroq9YEu-18" target="OFGrTXWQW8-pZroq9YEu-20">
          <mxGeometry relative="1" as="geometry" />
        </mxCell>
        <mxCell id="OFGrTXWQW8-pZroq9YEu-18" value="Вывод:&lt;br&gt;&quot;Введите число: &quot;" style="shape=parallelogram;perimeter=parallelogramPerimeter;whiteSpace=wrap;html=1;fixedSize=1;" vertex="1" parent="1">
          <mxGeometry x="112.5" y="-1050" width="125" height="40" as="geometry" />
        </mxCell>
        <mxCell id="OFGrTXWQW8-pZroq9YEu-23" value="" style="edgeStyle=orthogonalEdgeStyle;rounded=0;orthogonalLoop=1;jettySize=auto;html=1;" edge="1" parent="1" source="OFGrTXWQW8-pZroq9YEu-20" target="OFGrTXWQW8-pZroq9YEu-22">
          <mxGeometry relative="1" as="geometry" />
        </mxCell>
        <mxCell id="OFGrTXWQW8-pZroq9YEu-20" value="CorrectNumber =&lt;br&gt;Int.TryParse(Console.Readline(), out int MaxSize)&lt;span style=&quot;white-space: pre;&quot;&gt;	&lt;/span&gt;" style="rounded=0;whiteSpace=wrap;html=1;" vertex="1" parent="1">
          <mxGeometry x="85" y="-990" width="180" height="40" as="geometry" />
        </mxCell>
        <mxCell id="OFGrTXWQW8-pZroq9YEu-25" style="edgeStyle=orthogonalEdgeStyle;rounded=0;orthogonalLoop=1;jettySize=auto;html=1;entryX=0.5;entryY=0;entryDx=0;entryDy=0;" edge="1" parent="1" source="OFGrTXWQW8-pZroq9YEu-22" target="OFGrTXWQW8-pZroq9YEu-24">
          <mxGeometry relative="1" as="geometry">
            <Array as="points">
              <mxPoint x="275" y="-895" />
            </Array>
          </mxGeometry>
        </mxCell>
        <mxCell id="OFGrTXWQW8-pZroq9YEu-26" value="yes" style="edgeLabel;html=1;align=center;verticalAlign=middle;resizable=0;points=[];" vertex="1" connectable="0" parent="OFGrTXWQW8-pZroq9YEu-25">
          <mxGeometry x="0.0205" relative="1" as="geometry">
            <mxPoint as="offset" />
          </mxGeometry>
        </mxCell>
        <mxCell id="OFGrTXWQW8-pZroq9YEu-29" style="edgeStyle=orthogonalEdgeStyle;rounded=0;orthogonalLoop=1;jettySize=auto;html=1;exitX=0;exitY=0.5;exitDx=0;exitDy=0;entryX=0.5;entryY=0;entryDx=0;entryDy=0;" edge="1" parent="1" source="OFGrTXWQW8-pZroq9YEu-22" target="OFGrTXWQW8-pZroq9YEu-28">
          <mxGeometry relative="1" as="geometry" />
        </mxCell>
        <mxCell id="OFGrTXWQW8-pZroq9YEu-34" value="no" style="edgeLabel;html=1;align=center;verticalAlign=middle;resizable=0;points=[];" vertex="1" connectable="0" parent="OFGrTXWQW8-pZroq9YEu-29">
          <mxGeometry x="0.0333" relative="1" as="geometry">
            <mxPoint as="offset" />
          </mxGeometry>
        </mxCell>
        <mxCell id="OFGrTXWQW8-pZroq9YEu-22" value="CorrectNumber&lt;br&gt;&amp;amp;&amp;amp;&lt;br&gt;MaxSize &amp;gt; 0" style="rhombus;whiteSpace=wrap;html=1;" vertex="1" parent="1">
          <mxGeometry x="95" y="-930" width="160" height="70" as="geometry" />
        </mxCell>
        <mxCell id="OFGrTXWQW8-pZroq9YEu-33" style="edgeStyle=orthogonalEdgeStyle;rounded=0;orthogonalLoop=1;jettySize=auto;html=1;entryX=0.5;entryY=0;entryDx=0;entryDy=0;" edge="1" parent="1" source="OFGrTXWQW8-pZroq9YEu-24" target="OFGrTXWQW8-pZroq9YEu-27">
          <mxGeometry relative="1" as="geometry" />
        </mxCell>
        <mxCell id="OFGrTXWQW8-pZroq9YEu-24" value="return MaxSize" style="rounded=0;whiteSpace=wrap;html=1;" vertex="1" parent="1">
          <mxGeometry x="215" y="-840" width="120" height="40" as="geometry" />
        </mxCell>
        <mxCell id="OFGrTXWQW8-pZroq9YEu-27" value="end" style="ellipse;whiteSpace=wrap;html=1;" vertex="1" parent="1">
          <mxGeometry x="115" y="-730" width="120" height="40" as="geometry" />
        </mxCell>
        <mxCell id="OFGrTXWQW8-pZroq9YEu-31" value="" style="edgeStyle=orthogonalEdgeStyle;rounded=0;orthogonalLoop=1;jettySize=auto;html=1;" edge="1" parent="1" source="OFGrTXWQW8-pZroq9YEu-28" target="OFGrTXWQW8-pZroq9YEu-30">
          <mxGeometry relative="1" as="geometry" />
        </mxCell>
        <mxCell id="OFGrTXWQW8-pZroq9YEu-28" value="return -1" style="rounded=0;whiteSpace=wrap;html=1;" vertex="1" parent="1">
          <mxGeometry y="-870" width="120" height="40" as="geometry" />
        </mxCell>
        <mxCell id="OFGrTXWQW8-pZroq9YEu-32" style="edgeStyle=orthogonalEdgeStyle;rounded=0;orthogonalLoop=1;jettySize=auto;html=1;entryX=0.5;entryY=0;entryDx=0;entryDy=0;" edge="1" parent="1" source="OFGrTXWQW8-pZroq9YEu-30" target="OFGrTXWQW8-pZroq9YEu-27">
          <mxGeometry relative="1" as="geometry" />
        </mxCell>
        <mxCell id="OFGrTXWQW8-pZroq9YEu-30" value="Вывод:&lt;br&gt;&quot;Неверное число&quot;" style="shape=parallelogram;perimeter=parallelogramPerimeter;whiteSpace=wrap;html=1;fixedSize=1;" vertex="1" parent="1">
          <mxGeometry y="-810" width="120" height="40" as="geometry" />
        </mxCell>
        <mxCell id="OFGrTXWQW8-pZroq9YEu-37" value="" style="edgeStyle=orthogonalEdgeStyle;rounded=0;orthogonalLoop=1;jettySize=auto;html=1;" edge="1" parent="1" source="OFGrTXWQW8-pZroq9YEu-35" target="OFGrTXWQW8-pZroq9YEu-36">
          <mxGeometry relative="1" as="geometry" />
        </mxCell>
        <mxCell id="OFGrTXWQW8-pZroq9YEu-35" value="FillArray(size; array)" style="text;html=1;align=center;verticalAlign=middle;resizable=0;points=[];autosize=1;strokeColor=#82b366;fillColor=#d5e8d4;" vertex="1" parent="1">
          <mxGeometry x="455" y="-1162" width="130" height="30" as="geometry" />
        </mxCell>
        <mxCell id="OFGrTXWQW8-pZroq9YEu-40" value="" style="edgeStyle=orthogonalEdgeStyle;rounded=0;orthogonalLoop=1;jettySize=auto;html=1;" edge="1" parent="1" source="OFGrTXWQW8-pZroq9YEu-36" target="OFGrTXWQW8-pZroq9YEu-38">
          <mxGeometry relative="1" as="geometry" />
        </mxCell>
        <mxCell id="OFGrTXWQW8-pZroq9YEu-36" value="Start" style="ellipse;whiteSpace=wrap;html=1;" vertex="1" parent="1">
          <mxGeometry x="485" y="-1110" width="70" height="40" as="geometry" />
        </mxCell>
        <mxCell id="OFGrTXWQW8-pZroq9YEu-42" value="" style="edgeStyle=orthogonalEdgeStyle;rounded=0;orthogonalLoop=1;jettySize=auto;html=1;" edge="1" parent="1" source="OFGrTXWQW8-pZroq9YEu-38" target="OFGrTXWQW8-pZroq9YEu-41">
          <mxGeometry relative="1" as="geometry" />
        </mxCell>
        <mxCell id="OFGrTXWQW8-pZroq9YEu-48" style="edgeStyle=orthogonalEdgeStyle;rounded=0;orthogonalLoop=1;jettySize=auto;html=1;entryX=0.5;entryY=0;entryDx=0;entryDy=0;" edge="1" parent="1" source="OFGrTXWQW8-pZroq9YEu-38" target="OFGrTXWQW8-pZroq9YEu-47">
          <mxGeometry relative="1" as="geometry">
            <Array as="points">
              <mxPoint x="610" y="-1030" />
              <mxPoint x="610" y="-870" />
              <mxPoint x="525" y="-870" />
            </Array>
          </mxGeometry>
        </mxCell>
        <mxCell id="OFGrTXWQW8-pZroq9YEu-38" value="int i = 0; i &amp;lt; size; i++" style="shape=hexagon;perimeter=hexagonPerimeter2;whiteSpace=wrap;html=1;fixedSize=1;" vertex="1" parent="1">
          <mxGeometry x="460" y="-1050" width="120" height="40" as="geometry" />
        </mxCell>
        <mxCell id="OFGrTXWQW8-pZroq9YEu-44" value="" style="edgeStyle=orthogonalEdgeStyle;rounded=0;orthogonalLoop=1;jettySize=auto;html=1;" edge="1" parent="1" source="OFGrTXWQW8-pZroq9YEu-41" target="OFGrTXWQW8-pZroq9YEu-43">
          <mxGeometry relative="1" as="geometry" />
        </mxCell>
        <mxCell id="OFGrTXWQW8-pZroq9YEu-41" value="Вывод:&lt;br&gt;$&quot;Строка {i+1}: &quot;" style="shape=parallelogram;perimeter=parallelogramPerimeter;whiteSpace=wrap;html=1;fixedSize=1;" vertex="1" parent="1">
          <mxGeometry x="460" y="-990" width="120" height="40" as="geometry" />
        </mxCell>
        <mxCell id="OFGrTXWQW8-pZroq9YEu-45" style="edgeStyle=orthogonalEdgeStyle;rounded=0;orthogonalLoop=1;jettySize=auto;html=1;entryX=0;entryY=0.5;entryDx=0;entryDy=0;" edge="1" parent="1" source="OFGrTXWQW8-pZroq9YEu-43" target="OFGrTXWQW8-pZroq9YEu-38">
          <mxGeometry relative="1" as="geometry">
            <Array as="points">
              <mxPoint x="520" y="-880" />
              <mxPoint x="440" y="-880" />
              <mxPoint x="440" y="-1030" />
            </Array>
          </mxGeometry>
        </mxCell>
        <mxCell id="OFGrTXWQW8-pZroq9YEu-43" value="&amp;nbsp;array[i] = Ввод строки" style="shape=parallelogram;perimeter=parallelogramPerimeter;whiteSpace=wrap;html=1;fixedSize=1;" vertex="1" parent="1">
          <mxGeometry x="460" y="-925" width="120" height="35" as="geometry" />
        </mxCell>
        <mxCell id="OFGrTXWQW8-pZroq9YEu-50" value="" style="edgeStyle=orthogonalEdgeStyle;rounded=0;orthogonalLoop=1;jettySize=auto;html=1;" edge="1" parent="1" source="OFGrTXWQW8-pZroq9YEu-47" target="OFGrTXWQW8-pZroq9YEu-49">
          <mxGeometry relative="1" as="geometry" />
        </mxCell>
        <mxCell id="OFGrTXWQW8-pZroq9YEu-47" value="return array[i]" style="rounded=0;whiteSpace=wrap;html=1;" vertex="1" parent="1">
          <mxGeometry x="465" y="-850" width="120" height="40" as="geometry" />
        </mxCell>
        <mxCell id="OFGrTXWQW8-pZroq9YEu-49" value="end" style="ellipse;whiteSpace=wrap;html=1;" vertex="1" parent="1">
          <mxGeometry x="465" y="-790" width="120" height="50" as="geometry" />
        </mxCell>
        <mxCell id="OFGrTXWQW8-pZroq9YEu-53" value="" style="edgeStyle=orthogonalEdgeStyle;rounded=0;orthogonalLoop=1;jettySize=auto;html=1;" edge="1" parent="1" source="OFGrTXWQW8-pZroq9YEu-51" target="OFGrTXWQW8-pZroq9YEu-52">
          <mxGeometry relative="1" as="geometry" />
        </mxCell>
        <mxCell id="OFGrTXWQW8-pZroq9YEu-51" value="StringLenghtLessThree(array)" style="text;html=1;align=center;verticalAlign=middle;resizable=0;points=[];autosize=1;strokeColor=#82b366;fillColor=#d5e8d4;" vertex="1" parent="1">
          <mxGeometry x="780" y="-1162" width="180" height="30" as="geometry" />
        </mxCell>
        <mxCell id="OFGrTXWQW8-pZroq9YEu-55" value="" style="edgeStyle=orthogonalEdgeStyle;rounded=0;orthogonalLoop=1;jettySize=auto;html=1;" edge="1" parent="1" source="OFGrTXWQW8-pZroq9YEu-52" target="OFGrTXWQW8-pZroq9YEu-54">
          <mxGeometry relative="1" as="geometry" />
        </mxCell>
        <mxCell id="OFGrTXWQW8-pZroq9YEu-52" value="Start" style="ellipse;whiteSpace=wrap;html=1;" vertex="1" parent="1">
          <mxGeometry x="830" y="-1110" width="80" height="40" as="geometry" />
        </mxCell>
        <mxCell id="OFGrTXWQW8-pZroq9YEu-54" value="temporarryArray[array.Lenght]&lt;br&gt;j = 0" style="rounded=0;whiteSpace=wrap;html=1;" vertex="1" parent="1">
          <mxGeometry x="785" y="-1050" width="170" height="40" as="geometry" />
        </mxCell>
        <mxCell id="OFGrTXWQW8-pZroq9YEu-58" value="" style="edgeStyle=orthogonalEdgeStyle;rounded=0;orthogonalLoop=1;jettySize=auto;html=1;" edge="1" parent="1" source="OFGrTXWQW8-pZroq9YEu-56" target="OFGrTXWQW8-pZroq9YEu-57">
          <mxGeometry relative="1" as="geometry" />
        </mxCell>
        <mxCell id="OFGrTXWQW8-pZroq9YEu-66" style="edgeStyle=orthogonalEdgeStyle;rounded=0;orthogonalLoop=1;jettySize=auto;html=1;entryX=0.5;entryY=0;entryDx=0;entryDy=0;" edge="1" parent="1" source="OFGrTXWQW8-pZroq9YEu-56">
          <mxGeometry relative="1" as="geometry">
            <mxPoint x="887.5" y="-760" as="targetPoint" />
            <Array as="points">
              <mxPoint x="1020" y="-970" />
              <mxPoint x="1020" y="-780" />
              <mxPoint x="888" y="-780" />
            </Array>
          </mxGeometry>
        </mxCell>
        <mxCell id="OFGrTXWQW8-pZroq9YEu-56" value="int i = 0; i &amp;lt; array.Lenght; i++" style="shape=hexagon;perimeter=hexagonPerimeter2;whiteSpace=wrap;html=1;fixedSize=1;" vertex="1" parent="1">
          <mxGeometry x="790" y="-990" width="170" height="40" as="geometry" />
        </mxCell>
        <mxCell id="OFGrTXWQW8-pZroq9YEu-60" style="edgeStyle=orthogonalEdgeStyle;rounded=0;orthogonalLoop=1;jettySize=auto;html=1;entryX=0.5;entryY=0;entryDx=0;entryDy=0;" edge="1" parent="1" source="OFGrTXWQW8-pZroq9YEu-57" target="OFGrTXWQW8-pZroq9YEu-59">
          <mxGeometry relative="1" as="geometry">
            <Array as="points">
              <mxPoint x="940" y="-895" />
              <mxPoint x="940" y="-850" />
              <mxPoint x="908" y="-850" />
            </Array>
          </mxGeometry>
        </mxCell>
        <mxCell id="OFGrTXWQW8-pZroq9YEu-61" value="yes" style="edgeLabel;html=1;align=center;verticalAlign=middle;resizable=0;points=[];" vertex="1" connectable="0" parent="OFGrTXWQW8-pZroq9YEu-60">
          <mxGeometry x="-0.1718" y="-1" relative="1" as="geometry">
            <mxPoint as="offset" />
          </mxGeometry>
        </mxCell>
        <mxCell id="OFGrTXWQW8-pZroq9YEu-62" style="edgeStyle=orthogonalEdgeStyle;rounded=0;orthogonalLoop=1;jettySize=auto;html=1;entryX=0;entryY=0.5;entryDx=0;entryDy=0;" edge="1" parent="1" source="OFGrTXWQW8-pZroq9YEu-57" target="OFGrTXWQW8-pZroq9YEu-56">
          <mxGeometry relative="1" as="geometry">
            <Array as="points">
              <mxPoint x="770" y="-900" />
              <mxPoint x="770" y="-970" />
            </Array>
          </mxGeometry>
        </mxCell>
        <mxCell id="OFGrTXWQW8-pZroq9YEu-63" value="no" style="edgeLabel;html=1;align=center;verticalAlign=middle;resizable=0;points=[];" vertex="1" connectable="0" parent="OFGrTXWQW8-pZroq9YEu-62">
          <mxGeometry x="-0.4964" y="1" relative="1" as="geometry">
            <mxPoint as="offset" />
          </mxGeometry>
        </mxCell>
        <mxCell id="OFGrTXWQW8-pZroq9YEu-57" value="ArrayLenght[i] &lt;br&gt;&amp;lt;= 3" style="rhombus;whiteSpace=wrap;html=1;" vertex="1" parent="1">
          <mxGeometry x="815" y="-922.5" width="120" height="55" as="geometry" />
        </mxCell>
        <mxCell id="OFGrTXWQW8-pZroq9YEu-64" style="edgeStyle=orthogonalEdgeStyle;rounded=0;orthogonalLoop=1;jettySize=auto;html=1;entryX=0;entryY=0.5;entryDx=0;entryDy=0;" edge="1" parent="1" source="OFGrTXWQW8-pZroq9YEu-59" target="OFGrTXWQW8-pZroq9YEu-56">
          <mxGeometry relative="1" as="geometry">
            <Array as="points">
              <mxPoint x="918" y="-790" />
              <mxPoint x="770" y="-790" />
              <mxPoint x="770" y="-970" />
            </Array>
          </mxGeometry>
        </mxCell>
        <mxCell id="OFGrTXWQW8-pZroq9YEu-59" value="temporarrayArray[j] = arrr[i]&lt;br&gt;j++" style="rounded=0;whiteSpace=wrap;html=1;" vertex="1" parent="1">
          <mxGeometry x="830" y="-840" width="155" height="40" as="geometry" />
        </mxCell>
        <mxCell id="OFGrTXWQW8-pZroq9YEu-69" value="" style="edgeStyle=orthogonalEdgeStyle;rounded=0;orthogonalLoop=1;jettySize=auto;html=1;" edge="1" parent="1" source="OFGrTXWQW8-pZroq9YEu-67" target="OFGrTXWQW8-pZroq9YEu-68">
          <mxGeometry relative="1" as="geometry" />
        </mxCell>
        <mxCell id="OFGrTXWQW8-pZroq9YEu-67" value="return temporarryArray" style="rounded=0;whiteSpace=wrap;html=1;" vertex="1" parent="1">
          <mxGeometry x="825" y="-760" width="130" height="30" as="geometry" />
        </mxCell>
        <mxCell id="OFGrTXWQW8-pZroq9YEu-68" value="end" style="ellipse;whiteSpace=wrap;html=1;" vertex="1" parent="1">
          <mxGeometry x="830" y="-710" width="120" height="40" as="geometry" />
        </mxCell>
        <mxCell id="OFGrTXWQW8-pZroq9YEu-72" value="" style="edgeStyle=orthogonalEdgeStyle;rounded=0;orthogonalLoop=1;jettySize=auto;html=1;" edge="1" parent="1" source="OFGrTXWQW8-pZroq9YEu-70" target="OFGrTXWQW8-pZroq9YEu-71">
          <mxGeometry relative="1" as="geometry" />
        </mxCell>
        <mxCell id="OFGrTXWQW8-pZroq9YEu-70" value="PrintArray(arr)" style="text;html=1;align=center;verticalAlign=middle;resizable=0;points=[];autosize=1;strokeColor=#82b366;fillColor=#d5e8d4;" vertex="1" parent="1">
          <mxGeometry x="1240" y="-1162" width="100" height="30" as="geometry" />
        </mxCell>
        <mxCell id="OFGrTXWQW8-pZroq9YEu-74" value="" style="edgeStyle=orthogonalEdgeStyle;rounded=0;orthogonalLoop=1;jettySize=auto;html=1;" edge="1" parent="1" source="OFGrTXWQW8-pZroq9YEu-71" target="OFGrTXWQW8-pZroq9YEu-73">
          <mxGeometry relative="1" as="geometry" />
        </mxCell>
        <mxCell id="OFGrTXWQW8-pZroq9YEu-71" value="Start" style="ellipse;whiteSpace=wrap;html=1;" vertex="1" parent="1">
          <mxGeometry x="1250" y="-1110" width="80" height="40" as="geometry" />
        </mxCell>
        <mxCell id="OFGrTXWQW8-pZroq9YEu-76" value="" style="edgeStyle=orthogonalEdgeStyle;rounded=0;orthogonalLoop=1;jettySize=auto;html=1;" edge="1" parent="1" source="OFGrTXWQW8-pZroq9YEu-73" target="OFGrTXWQW8-pZroq9YEu-75">
          <mxGeometry relative="1" as="geometry" />
        </mxCell>
        <mxCell id="OFGrTXWQW8-pZroq9YEu-79" style="edgeStyle=orthogonalEdgeStyle;rounded=0;orthogonalLoop=1;jettySize=auto;html=1;entryX=0.5;entryY=0;entryDx=0;entryDy=0;" edge="1" parent="1" source="OFGrTXWQW8-pZroq9YEu-73" target="OFGrTXWQW8-pZroq9YEu-78">
          <mxGeometry relative="1" as="geometry">
            <Array as="points">
              <mxPoint x="1400" y="-1030" />
              <mxPoint x="1400" y="-920" />
              <mxPoint x="1290" y="-920" />
            </Array>
          </mxGeometry>
        </mxCell>
        <mxCell id="OFGrTXWQW8-pZroq9YEu-73" value="int i = 0; i &amp;lt; array.Lenght; i++" style="shape=hexagon;perimeter=hexagonPerimeter2;whiteSpace=wrap;html=1;fixedSize=1;" vertex="1" parent="1">
          <mxGeometry x="1205" y="-1050" width="170" height="40" as="geometry" />
        </mxCell>
        <mxCell id="OFGrTXWQW8-pZroq9YEu-77" style="edgeStyle=orthogonalEdgeStyle;rounded=0;orthogonalLoop=1;jettySize=auto;html=1;entryX=0;entryY=0.5;entryDx=0;entryDy=0;" edge="1" parent="1" source="OFGrTXWQW8-pZroq9YEu-75" target="OFGrTXWQW8-pZroq9YEu-73">
          <mxGeometry relative="1" as="geometry">
            <Array as="points">
              <mxPoint x="1290" y="-940" />
              <mxPoint x="1185" y="-940" />
              <mxPoint x="1185" y="-1030" />
            </Array>
          </mxGeometry>
        </mxCell>
        <mxCell id="OFGrTXWQW8-pZroq9YEu-75" value="Вывод:&lt;br&gt;$&quot;{arr[i]} &quot;" style="shape=parallelogram;perimeter=parallelogramPerimeter;whiteSpace=wrap;html=1;fixedSize=1;" vertex="1" parent="1">
          <mxGeometry x="1230" y="-990" width="120" height="40" as="geometry" />
        </mxCell>
        <mxCell id="OFGrTXWQW8-pZroq9YEu-78" value="end" style="ellipse;whiteSpace=wrap;html=1;" vertex="1" parent="1">
          <mxGeometry x="1245" y="-900" width="90" height="30" as="geometry" />
        </mxCell>
        <mxCell id="OFGrTXWQW8-pZroq9YEu-91" style="edgeStyle=orthogonalEdgeStyle;rounded=0;orthogonalLoop=1;jettySize=auto;html=1;" edge="1" parent="1" source="OFGrTXWQW8-pZroq9YEu-82" target="OFGrTXWQW8-pZroq9YEu-83">
          <mxGeometry relative="1" as="geometry" />
        </mxCell>
        <mxCell id="OFGrTXWQW8-pZroq9YEu-82" value="&lt;font style=&quot;font-size: 40px;&quot;&gt;main&lt;/font&gt;" style="text;html=1;align=center;verticalAlign=middle;resizable=0;points=[];autosize=1;strokeColor=#b85450;fillColor=#f8cecc;" vertex="1" parent="1">
          <mxGeometry x="772" y="-640" width="110" height="60" as="geometry" />
        </mxCell>
        <mxCell id="OFGrTXWQW8-pZroq9YEu-85" value="" style="edgeStyle=orthogonalEdgeStyle;rounded=0;orthogonalLoop=1;jettySize=auto;html=1;" edge="1" parent="1" source="OFGrTXWQW8-pZroq9YEu-83" target="OFGrTXWQW8-pZroq9YEu-84">
          <mxGeometry relative="1" as="geometry" />
        </mxCell>
        <mxCell id="OFGrTXWQW8-pZroq9YEu-83" value="start" style="ellipse;whiteSpace=wrap;html=1;" vertex="1" parent="1">
          <mxGeometry x="767" y="-540" width="120" height="40" as="geometry" />
        </mxCell>
        <mxCell id="OFGrTXWQW8-pZroq9YEu-87" value="" style="edgeStyle=orthogonalEdgeStyle;rounded=0;orthogonalLoop=1;jettySize=auto;html=1;" edge="1" parent="1" source="OFGrTXWQW8-pZroq9YEu-84" target="OFGrTXWQW8-pZroq9YEu-86">
          <mxGeometry relative="1" as="geometry" />
        </mxCell>
        <mxCell id="OFGrTXWQW8-pZroq9YEu-84" value="MaxSize = GetMaxSize()&amp;nbsp;&lt;br&gt;array[MaxSize]&lt;br&gt;newArray[maxSize]" style="rounded=0;whiteSpace=wrap;html=1;" vertex="1" parent="1">
          <mxGeometry x="732" y="-480" width="190" height="60" as="geometry" />
        </mxCell>
        <mxCell id="OFGrTXWQW8-pZroq9YEu-89" value="" style="edgeStyle=orthogonalEdgeStyle;rounded=0;orthogonalLoop=1;jettySize=auto;html=1;" edge="1" parent="1" source="OFGrTXWQW8-pZroq9YEu-86" target="OFGrTXWQW8-pZroq9YEu-88">
          <mxGeometry relative="1" as="geometry" />
        </mxCell>
        <mxCell id="OFGrTXWQW8-pZroq9YEu-86" value="array =&amp;nbsp;FillArray(MaxSize; array)" style="rounded=0;whiteSpace=wrap;html=1;" vertex="1" parent="1">
          <mxGeometry x="732" y="-400" width="190" height="30" as="geometry" />
        </mxCell>
        <mxCell id="OFGrTXWQW8-pZroq9YEu-93" value="" style="edgeStyle=orthogonalEdgeStyle;rounded=0;orthogonalLoop=1;jettySize=auto;html=1;" edge="1" parent="1" source="OFGrTXWQW8-pZroq9YEu-88" target="OFGrTXWQW8-pZroq9YEu-92">
          <mxGeometry relative="1" as="geometry" />
        </mxCell>
        <mxCell id="OFGrTXWQW8-pZroq9YEu-88" value="newArray =&amp;nbsp;StringLenghtLessThree(array)" style="rounded=0;whiteSpace=wrap;html=1;" vertex="1" parent="1">
          <mxGeometry x="702" y="-340" width="250" height="30" as="geometry" />
        </mxCell>
        <mxCell id="OFGrTXWQW8-pZroq9YEu-95" value="" style="edgeStyle=orthogonalEdgeStyle;rounded=0;orthogonalLoop=1;jettySize=auto;html=1;" edge="1" parent="1" source="OFGrTXWQW8-pZroq9YEu-92" target="OFGrTXWQW8-pZroq9YEu-94">
          <mxGeometry relative="1" as="geometry" />
        </mxCell>
        <mxCell id="OFGrTXWQW8-pZroq9YEu-92" value="PrintArray(newArray)" style="rounded=0;whiteSpace=wrap;html=1;" vertex="1" parent="1">
          <mxGeometry x="767" y="-280" width="120" height="30" as="geometry" />
        </mxCell>
        <mxCell id="OFGrTXWQW8-pZroq9YEu-94" value="end" style="ellipse;whiteSpace=wrap;html=1;" vertex="1" parent="1">
          <mxGeometry x="780" y="-230" width="100" height="50" as="geometry" />
        </mxCell>
      </root>
    </mxGraphModel>
  </diagram>
</mxfile>
